<mxfile host="app.diagrams.net" modified="2023-12-11T03:54:58.007Z" agent="Mozilla/5.0 (Windows NT 10.0; Win64; x64; rv:120.0) Gecko/20100101 Firefox/120.0" etag="N0H3c9lHy1QlowsbgT4E" version="21.7.4" type="github">
  <diagram name="第 1 页" id="z8eaokQcUnExMuXmSOVa">
    <mxGraphModel dx="1290" dy="511" grid="1" gridSize="10" guides="1" tooltips="1" connect="1" arrows="1" fold="1" page="1" pageScale="1" pageWidth="827" pageHeight="1169" math="0" shadow="0">
      <root>
        <mxCell id="0" />
        <mxCell id="1" parent="0" />
        <mxCell id="fKBTuQ9XRsDoy9fK-hjk-1" value="粗粒度审计进程&lt;br&gt;audit logger process" style="rounded=0;whiteSpace=wrap;html=1;" vertex="1" parent="1">
          <mxGeometry x="230" y="130" width="120" height="60" as="geometry" />
        </mxCell>
        <mxCell id="fKBTuQ9XRsDoy9fK-hjk-2" value="细粒度审计进程&lt;br&gt;&lt;div&gt;audit fga worker&lt;/div&gt;" style="rounded=0;whiteSpace=wrap;html=1;" vertex="1" parent="1">
          <mxGeometry x="390" y="130" width="120" height="60" as="geometry" />
        </mxCell>
        <mxCell id="fKBTuQ9XRsDoy9fK-hjk-14" style="edgeStyle=orthogonalEdgeStyle;rounded=0;orthogonalLoop=1;jettySize=auto;html=1;exitX=0.25;exitY=1;exitDx=0;exitDy=0;entryX=0.5;entryY=0;entryDx=0;entryDy=0;" edge="1" parent="1" source="fKBTuQ9XRsDoy9fK-hjk-5" target="fKBTuQ9XRsDoy9fK-hjk-7">
          <mxGeometry relative="1" as="geometry" />
        </mxCell>
        <mxCell id="fKBTuQ9XRsDoy9fK-hjk-15" style="edgeStyle=orthogonalEdgeStyle;rounded=0;orthogonalLoop=1;jettySize=auto;html=1;exitX=0.5;exitY=1;exitDx=0;exitDy=0;entryX=0.5;entryY=0;entryDx=0;entryDy=0;" edge="1" parent="1" source="fKBTuQ9XRsDoy9fK-hjk-5" target="fKBTuQ9XRsDoy9fK-hjk-9">
          <mxGeometry relative="1" as="geometry" />
        </mxCell>
        <mxCell id="fKBTuQ9XRsDoy9fK-hjk-16" style="edgeStyle=orthogonalEdgeStyle;rounded=0;orthogonalLoop=1;jettySize=auto;html=1;exitX=0.75;exitY=1;exitDx=0;exitDy=0;entryX=0.5;entryY=0;entryDx=0;entryDy=0;" edge="1" parent="1" source="fKBTuQ9XRsDoy9fK-hjk-5" target="fKBTuQ9XRsDoy9fK-hjk-11">
          <mxGeometry relative="1" as="geometry" />
        </mxCell>
        <mxCell id="fKBTuQ9XRsDoy9fK-hjk-5" value="&lt;font style=&quot;font-size: 18px;&quot;&gt;粗粒度审计元数据&lt;/font&gt;" style="rounded=0;whiteSpace=wrap;html=1;" vertex="1" parent="1">
          <mxGeometry x="150" y="270" width="190" height="60" as="geometry" />
        </mxCell>
        <mxCell id="fKBTuQ9XRsDoy9fK-hjk-7" value="系统表" style="rounded=0;whiteSpace=wrap;html=1;" vertex="1" parent="1">
          <mxGeometry x="150" y="350" width="50" height="30" as="geometry" />
        </mxCell>
        <mxCell id="fKBTuQ9XRsDoy9fK-hjk-9" value="系统参数" style="rounded=0;whiteSpace=wrap;html=1;" vertex="1" parent="1">
          <mxGeometry x="210" y="350" width="60" height="30" as="geometry" />
        </mxCell>
        <mxCell id="fKBTuQ9XRsDoy9fK-hjk-11" value="系统视图" style="rounded=0;whiteSpace=wrap;html=1;" vertex="1" parent="1">
          <mxGeometry x="280" y="350" width="60" height="30" as="geometry" />
        </mxCell>
      </root>
    </mxGraphModel>
  </diagram>
</mxfile>
